<?xml version="1.0" standalone="no"?><!DOCTYPE svg PUBLIC "-//W3C//DTD SVG 1.1//EN" "http://www.w3.org/Graphics/SVG/1.1/DTD/svg11.dtd"><svg t="1749480847807" class="icon" viewBox="0 0 1024 1024" version="1.1" xmlns="http://www.w3.org/2000/svg" p-id="18594" xmlns:xlink="http://www.w3.org/1999/xlink" width="32" height="32"><path d="M401.066667 392.533333c-12.8-21.333333-38.4-59.733333-59.733334-85.333333l-38.4 21.333333c21.333333 25.6 46.933333 64 55.466667 89.6l42.666667-25.6zM610.133333 597.333333h98.133334v-42.666666h-98.133334v-42.666667h-46.933333v42.666667h-98.133333v42.666666h98.133333v42.666667h-119.466667v21.333333l-17.066666-34.133333-34.133334 25.6v-204.8H281.6v46.933333h64v170.666667c0 25.6-17.066667 42.666667-25.6 51.2 8.533333 8.533333 21.333333 25.6 25.6 34.133333 8.533333-12.8 21.333333-21.333333 93.866667-85.333333v17.066667h119.466666v76.8h46.933334V682.666667h128v-42.666667h-128v-42.666667z" fill="#595959" p-id="18595"></path><path d="M729.6 337.066667l-34.133333-17.066667h-251.733334v42.666667h29.866667c21.333333 34.133333 42.666667 59.733333 72.533333 85.333333-38.4 21.333333-85.333333 38.4-128 46.933333 8.533333 8.533333 21.333333 29.866667 25.6 42.666667 51.2-12.8 98.133333-34.133333 140.8-59.733333 38.4 25.6 85.333333 42.666667 132.266667 55.466666 8.533333-12.8 21.333333-34.133333 29.866667-42.666666-42.666667-8.533333-85.333333-21.333333-123.733334-42.666667 51.2-29.866667 85.333333-68.266667 106.666667-110.933333z m-140.8 85.333333c-25.6-17.066667-46.933333-38.4-64-59.733333h132.266667c-17.066667 21.333333-38.4 42.666667-68.266667 59.733333z" fill="#595959" p-id="18596"></path><path d="M768 85.333333H256C162.133333 85.333333 85.333333 162.133333 85.333333 256v512c0 93.866667 76.8 170.666667 170.666667 170.666667h512c93.866667 0 170.666667-76.8 170.666667-170.666667V256c0-93.866667-76.8-170.666667-170.666667-170.666667z m85.333333 682.666667c0 46.933333-38.4 85.333333-85.333333 85.333333H256c-46.933333 0-85.333333-38.4-85.333333-85.333333V256c0-46.933333 38.4-85.333333 85.333333-85.333333h512c46.933333 0 85.333333 38.4 85.333333 85.333333v512z" fill="#595959" p-id="18597"></path></svg>